<?xml version="1.0" encoding="UTF-8" standalone="no"?>
<!-- Created with Inkscape (http://www.inkscape.org/) -->

<svg
   width="855.57904"
   height="258.72711"
   viewBox="0 0 226.37195 68.454877"
   version="1.1"
   id="svg1"
   xml:space="preserve"
   xmlns="http://www.w3.org/2000/svg"
   xmlns:svg="http://www.w3.org/2000/svg"><defs
     id="defs1" /><g
     id="layer1"
     transform="translate(-6.1573172,-11.952438)"><rect
       style="fill:#1a1a1a;fill-opacity:1;stroke-width:0.264583"
       id="rect2"
       width="226.37195"
       height="68.45488"
       x="6.1573172"
       y="11.952438"
       ry="13.829974" /><g
       id="text1"
       style="font-size:19.7556px;font-family:'DejaVu Sans Mono';-inkscape-font-specification:'DejaVu Sans Mono';fill:#1480b6;stroke-width:0.264583"
       aria-label="Get Open TV on the AUR"><path
         style="font-family:hack;-inkscape-font-specification:hack"
         d="m 84.675788,40.511653 q -1.379419,0 -2.450157,-0.501607 -1.061092,-0.501607 -1.803857,-1.466236 -1.514467,-1.977489 -1.514467,-5.488738 0,-3.578774 1.543406,-5.527324 1.553053,-1.958197 4.254014,-1.958197 0.945336,0 1.774917,0.250804 0.848873,0.270096 1.601284,0.781349 v 1.996782 q -0.41479,-0.395498 -0.829581,-0.665594 -0.405144,-0.270096 -0.771703,-0.434083 -0.424437,-0.183279 -0.868166,-0.26045 -0.443729,-0.08682 -0.877812,-0.08682 -1.881027,0 -2.836009,1.466236 -0.954983,1.466236 -0.954983,4.446939 0,1.524114 0.231511,2.614144 0.231511,1.080385 0.694533,1.803856 0.916397,1.446944 2.836009,1.446944 0.636655,0 1.128616,-0.154341 0.231511,-0.07717 0.453375,-0.183279 0.221865,-0.115756 0.424437,-0.279743 V 34.444137 H 84.61791 v -1.601284 h 3.954979 v 6.202564 q -0.790996,0.733118 -1.755625,1.090031 -0.983921,0.376205 -2.141476,0.376205 z m 11.681656,0 q -2.498389,0 -3.92604,-1.495175 -1.418004,-1.504821 -1.418004,-4.099673 0,-1.61093 0.559484,-2.913179 0.569131,-1.302249 1.678455,-2.064306 1.118969,-0.771703 2.758838,-0.771703 2.160769,0 3.347263,1.389066 1.19614,1.379419 1.19614,3.829577 v 0.868166 h -7.688093 v 0.05788 q 0,1.688101 0.887459,2.691315 0.887458,1.003214 2.62379,1.003214 1.003214,0 1.938904,-0.318328 0.945337,-0.318327 1.82315,-0.771703 v 1.765271 q -0.916398,0.376206 -1.861735,0.59807 -0.93569,0.231511 -1.919611,0.231511 z m 2.421218,-6.646293 q 0,-0.897105 -0.270096,-1.620577 -0.270096,-0.723471 -0.868166,-1.147908 -0.588423,-0.424437 -1.562699,-0.424437 -0.983921,0 -1.649515,0.434083 -0.655948,0.424437 -1.032153,1.147909 -0.366559,0.723471 -0.463022,1.61093 z m 10.717028,6.405136 q -1.98714,0 -2.81672,-0.800642 -0.81993,-0.810288 -0.81993,-2.758839 v -5.903529 h -2.88424 v -1.379419 h 2.88424 v -2.826363 l 1.77492,-0.771703 v 3.598066 h 4.03214 v 1.379419 h -4.03214 v 5.903529 q 0,1.186494 0.45337,1.668808 0.45338,0.472668 1.58199,0.472668 h 1.99678 v 1.418005 z m 21.94531,0.241157 q -2.44051,0 -3.62701,-1.842441 -1.18649,-1.842441 -1.18649,-5.623787 0,-3.790991 1.19614,-5.623786 1.20578,-1.852088 3.61736,-1.852088 1.18649,0 2.10289,0.44373 0.91639,0.443729 1.53376,1.408358 1.18649,1.852087 1.18649,5.623786 0,3.762053 -1.18649,5.614141 -0.61737,0.964628 -1.53376,1.408358 -0.9164,0.443729 -2.10289,0.443729 z m 0,-1.581991 q 1.49517,0 2.14147,-1.360127 0.6463,-1.321542 0.6463,-4.52411 0,-3.202568 -0.6463,-4.533755 -0.6463,-1.360127 -2.14147,-1.360127 -1.46624,0 -2.12219,1.360127 -0.65594,1.389065 -0.65594,4.533755 0,3.135044 0.65594,4.52411 0.65595,1.360127 2.12219,1.360127 z m 7.78455,-9.501595 h 1.61093 l 0.17364,1.379419 q 0.92604,-1.639869 2.90353,-1.639869 1.9389,0 3.04823,1.514468 1.11897,1.514467 1.11897,4.138258 0,2.643083 -1.12862,4.167196 -1.11897,1.524114 -3.03858,1.524114 -2.02572,0 -2.90353,-1.639869 v 5.469446 h -1.78457 z m 4.45659,9.578765 q 2.53697,0 2.53697,-4.167197 0,-4.167197 -2.53697,-4.167197 -1.30225,0 -1.98714,1.080385 -0.68488,1.080384 -0.68488,3.077166 0,2.006428 0.68488,3.096459 0.69454,1.080384 1.98714,1.080384 z m 12.14467,1.504821 q -2.49839,0 -3.92604,-1.495175 -1.418,-1.504821 -1.418,-4.099673 0,-1.61093 0.55948,-2.913179 0.56913,-1.302249 1.67846,-2.064306 1.11897,-0.771703 2.75884,-0.771703 2.16077,0 3.34726,1.389066 1.19614,1.379419 1.19614,3.829577 v 0.868166 h -7.68809 v 0.05788 q 0,1.688101 0.88745,2.691315 0.88746,1.003214 2.6238,1.003214 1.00321,0 1.9389,-0.318328 0.94534,-0.318327 1.82315,-0.771703 v 1.765271 q -0.9164,0.376206 -1.86174,0.59807 -0.93569,0.231511 -1.91961,0.231511 z m 2.42122,-6.646293 q 0,-0.897105 -0.27009,-1.620577 -0.2701,-0.723471 -0.86817,-1.147908 -0.58842,-0.424437 -1.5627,-0.424437 -0.98392,0 -1.64952,0.434083 -0.65594,0.424437 -1.03215,1.147909 -0.36656,0.723471 -0.46302,1.61093 z m 4.8135,-4.437293 h 1.60128 l 0.17364,1.620577 q 0.97427,-1.881027 3.17363,-1.881027 3.30867,0 3.30867,4.369769 v 6.694525 h -1.78456 v -6.694525 q 0,-1.45659 -0.51125,-2.141476 -0.50161,-0.684887 -1.5627,-0.684887 -1.26367,0 -1.94855,0.897105 -0.67524,0.887459 -0.67524,2.517682 v 6.106101 h -1.77492 z m 26.88421,-1.958197 h -4.52411 v -1.639869 h 10.98712 v 1.639869 h -4.50481 v 12.762041 h -1.9582 z m 7.46623,-1.639869 h 2.01607 l 3.3762,12.762041 3.38585,-12.762041 h 2.01608 l -4.21543,14.40191 h -2.36334 z"
         id="path1" /><path
         style="font-family:hack;-inkscape-font-specification:hack"
         d="m 83.884792,65.206149 q -2.257231,0 -3.453371,-1.456589 -1.186494,-1.466236 -1.186494,-4.205782 0,-2.749193 1.19614,-4.215429 1.19614,-1.466236 3.434079,-1.466236 2.237939,0 3.424433,1.466236 1.196139,1.45659 1.196139,4.225075 0,2.749192 -1.186493,4.205782 -1.186494,1.446943 -3.424433,1.446943 z m -0.0096,-1.504821 q 1.321542,0 2.025721,-1.080384 0.713825,-1.080385 0.713825,-3.096459 0,-2.006428 -0.713825,-3.077166 -0.704179,-1.080385 -2.025721,-1.080385 -1.331188,0 -2.045013,1.080385 -0.704179,1.070738 -0.704179,3.077166 0,2.016074 0.713825,3.096459 0.713825,1.080384 2.035367,1.080384 z m 7.82314,-9.578765 h 1.601284 l 0.173633,1.620577 q 0.974276,-1.881027 3.173629,-1.881027 3.308678,0 3.308678,4.369769 v 6.694525 h -1.784564 v -6.694525 q 0,-1.456589 -0.511253,-2.141476 -0.501607,-0.684886 -1.562699,-0.684886 -1.263664,0 -1.94855,0.897104 -0.675241,0.887459 -0.675241,2.517682 v 6.106101 h -1.774917 z m 29.691278,10.842429 q -1.98713,0 -2.81671,-0.800642 -0.81994,-0.810288 -0.81994,-2.758839 v -5.903529 h -2.88424 v -1.379419 h 2.88424 V 51.2962 l 1.77492,-0.771703 v 3.598066 h 4.03215 v 1.379419 h -4.03215 v 5.903529 q 0,1.186494 0.45337,1.668808 0.45338,0.472669 1.582,0.472669 h 1.99678 v 1.418004 z m 5.99035,-15.048211 h 1.77492 v 5.826359 q 0.97427,-1.881027 3.19292,-1.881027 1.33119,0 2.03536,0.617363 0.71383,0.617362 0.98393,1.61093 0.27009,0.993568 0.27009,2.141476 v 6.694525 h -1.78456 v -6.694525 q 0,-1.456589 -0.51125,-2.141476 -0.51126,-0.684886 -1.59164,-0.684886 -1.00322,0 -1.57235,0.501607 -0.55948,0.49196 -0.79099,1.27331 -0.23151,0.781349 -0.23151,1.639869 v 6.106101 h -1.77492 z m 16.55303,15.289368 q -2.49839,0 -3.92604,-1.495175 -1.418,-1.504821 -1.418,-4.099672 0,-1.610931 0.55948,-2.91318 0.56913,-1.302249 1.67846,-2.064306 1.11897,-0.771703 2.75883,-0.771703 2.16077,0 3.34727,1.389066 1.19614,1.379419 1.19614,3.829577 v 0.868166 h -7.6881 v 0.05788 q 0,1.688101 0.88746,2.691315 0.88746,1.003214 2.62379,1.003214 1.00322,0 1.93891,-0.318327 0.94533,-0.318328 1.82315,-0.771704 v 1.765271 q -0.9164,0.376206 -1.86174,0.59807 -0.93569,0.231511 -1.91961,0.231511 z m 2.42122,-6.646293 q 0,-0.897105 -0.2701,-1.620576 -0.27009,-0.723472 -0.86816,-1.147909 -0.58843,-0.424437 -1.5627,-0.424437 -0.98392,0 -1.64952,0.434083 -0.65594,0.424437 -1.03215,1.147909 -0.36656,0.723471 -0.46302,1.61093 z m 19.59161,-8.035359 h 2.36334 l 4.40836,14.40191 h -2.01608 L 169.6403,61.174 h -5.04501 l -1.0418,3.752407 h -2.01607 z m 3.23151,9.086805 -2.05466,-7.369765 -2.05466,7.369765 z m 9.83921,5.594847 q -1.00321,0 -1.82315,-0.279742 -0.3762,-0.135048 -0.78135,-0.347267 -0.39549,-0.221864 -0.70417,-0.501607 -0.29904,-0.270096 -0.53055,-0.636655 -0.23151,-0.366559 -0.3955,-0.916397 -0.15434,-0.482315 -0.22186,-1.205786 -0.0675,-0.733118 -0.0675,-1.919612 v -8.874586 h 1.9582 v 9.762045 q 0,1.041799 0.0579,1.495175 0.0579,0.443729 0.20257,0.694532 0.30868,0.569131 0.8971,0.85852 0.57878,0.289389 1.40836,0.289389 0.83923,0 1.41801,-0.289389 0.59807,-0.308681 0.8971,-0.85852 0.15434,-0.279742 0.20257,-0.684886 0.0579,-0.453376 0.0579,-1.485529 v -9.781337 h 1.94855 v 8.874586 q 0,1.27331 -0.0772,1.987136 -0.0772,0.704179 -0.19292,1.138262 -0.26045,0.93569 -0.94534,1.553052 -0.31833,0.289389 -0.71383,0.501607 -0.38585,0.212219 -0.76205,0.347267 -0.35691,0.125402 -0.81029,0.202572 -0.45338,0.07717 -1.02251,0.07717 z m 7.33118,-14.681652 h 4.01286 q 2.38263,0 3.63665,1.070738 1.26366,1.080385 1.26366,3.057874 0,0.762057 -0.19292,1.340834 -0.19293,0.569131 -0.57878,1.022507 -0.76206,0.906751 -2.18971,1.109323 0.78135,0.192926 1.28296,0.723472 0.2701,0.279742 0.57878,0.790995 0.31833,0.501607 0.74276,1.350481 l 1.9582,3.935686 h -2.09325 l -1.71704,-3.636651 q -0.3762,-0.800642 -0.71382,-1.292603 -0.32797,-0.491961 -0.61736,-0.713825 -0.29904,-0.231511 -0.70418,-0.33762 -0.3955,-0.10611 -0.84888,-0.10611 h -1.86173 v 6.086809 h -1.9582 z m 4.09003,6.713817 q 1.39871,0 2.0836,-0.627008 0.68488,-0.627009 0.68488,-1.900319 0,-1.263664 -0.72347,-1.929258 -0.34726,-0.308681 -0.87781,-0.482315 -0.5209,-0.173633 -1.24437,-0.173633 h -2.05466 v 5.112533 z"
         id="path2" /></g></g><path
     d="m 35.863439,9.8727726 c -2.157983,5.2086324 -3.459573,8.6156894 -5.862204,13.6694894 1.473114,1.537249 3.281291,3.327453 6.217765,5.34932 -3.156997,-1.278911 -5.310456,-2.562905 -6.91977,-3.89531 -3.07491,6.316625 -7.892408,15.314376 -17.668664,32.607519 7.683809,-4.367104 13.640161,-7.059471 19.191195,-8.086808 -0.238364,-1.009277 -0.373883,-2.101007 -0.364678,-3.240109 l 0.0092,-0.242335 c 0.121924,-4.846361 2.682768,-8.573213 5.716333,-8.320169 3.033566,0.253046 5.391523,4.389293 5.269601,9.235657 -0.02293,0.911932 -0.127416,1.7892 -0.309977,2.602858 5.490766,1.05741 11.383427,3.742884 18.963272,8.050906 -1.494598,-2.708925 -2.828655,-5.150823 -4.102631,-7.476483 -2.00672,-1.531187 -4.099828,-3.524032 -8.369368,-5.68141 2.934637,0.750701 5.0358,1.616807 6.673613,2.584907 C 41.354172,23.289346 40.305267,20.134596 35.863439,9.8727726 Z"
     id="path2518"
     style="fill:#1793d1;fill-opacity:1;fill-rule:evenodd;stroke:none;stroke-width:0.289468" /></svg>
