<?xml version="1.0" encoding="UTF-8" standalone="no"?>
<!-- Created with Inkscape (http://www.inkscape.org/) -->

<svg
   width="855.57904"
   height="258.72711"
   viewBox="0 0 226.37195 68.454877"
   version="1.1"
   id="svg1"
   xml:space="preserve"
   sodipodi:docname="aur-open-tv.svg"
   inkscape:version="1.4 (e7c3feb100, 2024-10-09)"
   xmlns:inkscape="http://www.inkscape.org/namespaces/inkscape"
   xmlns:sodipodi="http://sodipodi.sourceforge.net/DTD/sodipodi-0.dtd"
   xmlns="http://www.w3.org/2000/svg"
   xmlns:svg="http://www.w3.org/2000/svg"><sodipodi:namedview
     id="namedview1"
     pagecolor="#ffffff"
     bordercolor="#000000"
     borderopacity="0.25"
     inkscape:showpageshadow="2"
     inkscape:pageopacity="0.0"
     inkscape:pagecheckerboard="0"
     inkscape:deskcolor="#d1d1d1"
     inkscape:zoom="0.995"
     inkscape:cx="261.80905"
     inkscape:cy="154.77387"
     inkscape:window-width="1920"
     inkscape:window-height="1007"
     inkscape:window-x="0"
     inkscape:window-y="0"
     inkscape:window-maximized="1"
     inkscape:current-layer="svg1" /><defs
     id="defs1" /><g
     id="layer1"
     transform="translate(-6.1573172,-11.952438)"><rect
       style="fill:#1a1a1a;fill-opacity:1;stroke-width:0.264583"
       id="rect2"
       width="226.37195"
       height="68.45488"
       x="6.1573172"
       y="11.952438"
       ry="13.829974" /><text
       xml:space="preserve"
       style="font-style:normal;font-variant:normal;font-weight:normal;font-stretch:normal;font-size:19.7556px;font-family:'DejaVu Sans Mono';-inkscape-font-specification:'DejaVu Sans Mono';text-align:start;writing-mode:lr-tb;direction:ltr;text-anchor:start;fill:#1480b6;fill-opacity:1;stroke-width:0.264583"
       x="77.923386"
       y="40.231911"
       id="text1"><tspan
         id="tspan1"
         style="font-style:normal;font-variant:normal;font-weight:normal;font-stretch:normal;font-size:19.7556px;font-family:hack;-inkscape-font-specification:hack;fill:#1480b6;fill-opacity:1;stroke-width:0.264583"
         x="77.923386"
         y="40.231911">Get Open TV </tspan><tspan
         style="font-style:normal;font-variant:normal;font-weight:normal;font-stretch:normal;font-size:19.7556px;font-family:hack;-inkscape-font-specification:hack;fill:#1480b6;fill-opacity:1;stroke-width:0.264583"
         x="77.923386"
         y="64.926407"
         id="tspan2">on the AUR</tspan></text></g><path
     d="m 35.863439,9.8727726 c -2.157983,5.2086324 -3.459573,8.6156894 -5.862204,13.6694894 1.473114,1.537249 3.281291,3.327453 6.217765,5.34932 -3.156997,-1.278911 -5.310456,-2.562905 -6.91977,-3.89531 -3.07491,6.316625 -7.892408,15.314376 -17.668664,32.607519 7.683809,-4.367104 13.640161,-7.059471 19.191195,-8.086808 -0.238364,-1.009277 -0.373883,-2.101007 -0.364678,-3.240109 l 0.0092,-0.242335 c 0.121924,-4.846361 2.682768,-8.573213 5.716333,-8.320169 3.033566,0.253046 5.391523,4.389293 5.269601,9.235657 -0.02293,0.911932 -0.127416,1.7892 -0.309977,2.602858 5.490766,1.05741 11.383427,3.742884 18.963272,8.050906 -1.494598,-2.708925 -2.828655,-5.150823 -4.102631,-7.476483 -2.00672,-1.531187 -4.099828,-3.524032 -8.369368,-5.68141 2.934637,0.750701 5.0358,1.616807 6.673613,2.584907 C 41.354172,23.289346 40.305267,20.134596 35.863439,9.8727726 Z"
     id="path2518"
     style="fill:#1793d1;fill-opacity:1;fill-rule:evenodd;stroke:none;stroke-width:0.289468" /></svg>
